<svg height="478" width="720" xmlns="http://www.w3.org/2000/svg">
<rect height="478" fill="#555" width="720"></rect>
<text fill="#7f7" font-family="Courier New" font-size="12" xml:space="preserve">
<tspan x="10" y="26">8 megabytes installed</tspan>
<tspan x="10" y="42"></tspan>
<tspan x="10" y="58">node_modules</tspan>
<tspan x="10" y="74">└─┬ sails-postgresql@0.11.4 </tspan>
<tspan x="10" y="90">  ├── async@1.5.2 </tspan>
<tspan x="10" y="106">  ├── lodash@3.10.1 </tspan>
<tspan x="10" y="122">  ├─┬ pg@4.5.5 </tspan>
<tspan x="10" y="138">  │ ├── buffer-writer@1.0.1 </tspan>
<tspan x="10" y="154">  │ ├── generic-pool@2.1.1 </tspan>
<tspan x="10" y="170">  │ ├── packet-reader@0.2.0 </tspan>
<tspan x="10" y="186">  │ ├── pg-connection-string@0.1.3 </tspan>
<tspan x="10" y="202">  │ ├─┬ pg-types@1.11.0 </tspan>
<tspan x="10" y="218">  │ │ ├── ap@0.2.0 </tspan>
<tspan x="10" y="234">  │ │ ├── postgres-array@1.0.0 </tspan>
<tspan x="10" y="250">  │ │ ├── postgres-bytea@1.0.0 </tspan>
<tspan x="10" y="266">  │ │ ├── postgres-date@1.0.1 </tspan>
<tspan x="10" y="282">  │ │ └─┬ postgres-interval@1.0.2 </tspan>
<tspan x="10" y="298">  │ │   └── xtend@4.0.1 </tspan>
<tspan x="10" y="314">  │ ├─┬ pgpass@0.0.3 </tspan>
<tspan x="10" y="330">  │ │ └─┬ split@0.3.3 </tspan>
<tspan x="10" y="346">  │ │   └── through@2.3.8 </tspan>
<tspan x="10" y="362">  │ └── semver@4.3.6 </tspan>
<tspan x="10" y="378">  ├─┬ waterline-cursor@0.0.6 </tspan>
<tspan x="10" y="394">  │ ├── async@0.9.2 </tspan>
<tspan x="10" y="410">  │ └── lodash@2.4.2 </tspan>
<tspan x="10" y="426">  ├── waterline-errors@0.10.1 </tspan>
<tspan x="10" y="442">  └─┬ waterline-sequel@0.5.7 </tspan>
<tspan x="10" y="458">    └── lodash@3.10.0</tspan>
</text>
</svg>
